<svg xmlns="http://www.w3.org/2000/svg" viewBox="0 0 1058 419" fill="none">
  <path d="M996.46 61.24C958.88 23.66 907.06 0.32 849.8 0.02V0H207.89C179.26 0.16 151.99 6.06 127.17 16.63C102.38 27.21 80.01 42.44 61.23 61.21C23.41 99.04 0 151.29 0 209.02C0 266.75 23.41 319 61.24 356.8C98.82 394.38 150.63 417.72 207.89 418.02V418.04H849.8C878.43 417.88 905.7 411.98 930.52 401.41C955.31 390.83 977.68 375.6 996.46 356.83C1034.29 319 1057.7 266.76 1057.7 209.02C1057.7 151.28 1034.29 99.04 996.46 61.24Z" fill="black"/>
  <path d="M288.67 179.14C273.94 164.77 253.83 155.91 231.65 155.91C186.49 155.91 149.89 192.58 149.89 237.81C149.89 283.04 186.5 319.71 231.65 319.71C253.83 319.71 273.94 310.85 288.67 296.48V316.99H313.41V101.13H288.67V179.14ZM231.65 294.37C200.46 294.37 175.18 269.04 175.18 237.8C175.18 206.56 200.46 181.23 231.65 181.23C262.84 181.23 288.12 206.56 288.12 237.8C288.12 269.04 262.84 294.37 231.65 294.37Z" fill="white"/>
  <path d="M666.01 158.22H641.27V316.99H666.01V158.22Z" fill="white"/>
  <path d="M833.89 158.22H809.15V316.99H833.89V158.22Z" fill="white"/>
  <path d="M666.01 101.13H641.27V126.68H666.01V101.13Z" fill="white"/>
  <path d="M833.89 101.13H809.15V126.68H833.89V101.13Z" fill="white"/>
  <path d="M469.18 179.14C454.45 164.77 434.34 155.91 412.16 155.91C367 155.91 330.4 192.58 330.4 237.81C330.4 283.04 367.01 319.71 412.16 319.71C434.34 319.71 454.45 310.85 469.18 296.48V316.99H493.92V158.22H469.18V179.14ZM412.16 294.37C380.97 294.37 355.69 269.04 355.69 237.8C355.69 206.56 380.97 181.23 412.16 181.23C443.35 181.23 468.63 206.56 468.63 237.8C468.63 269.04 443.35 294.37 412.16 294.37Z" fill="white"/>
  <path d="M612.66 127.53V101.86C581.17 106.24 555.42 128.57 546.05 158.22H520.91V182.96H543.88V316.99H568.62V182.96H614.29V158.22H573.21C580.78 142.66 595.26 131.09 612.66 127.53Z" fill="white"/>
  <path d="M736.5 101.13H711.14V158.22H693.01V182.96H711.14V243.86C713.98 282.77 743.94 314.11 782.18 319.02V293.39C758.14 288.87 739.46 269.09 736.58 244.47C736.57 244.38 736.51 243.39 736.51 243.39V182.97H782.18V158.23H736.51V101.14L736.5 101.13Z" fill="white"/>
  <path d="M950.752 213.011C954.107 198.794 945.302 184.548 931.085 181.192C916.868 177.837 902.622 186.642 899.266 200.859C895.911 215.077 904.716 229.322 918.933 232.678C933.151 236.033 947.396 227.228 950.752 213.011Z" fill="white"/>
</svg>
